<?xml version="1.0" standalone="no"?>
<!DOCTYPE svg PUBLIC "-//W3C//DTD SVG 20010904//EN"
 "http://www.w3.org/TR/2001/REC-SVG-20010904/DTD/svg10.dtd">
<svg version="1.0" xmlns="http://www.w3.org/2000/svg"
 width="805.000000pt" height="510.000000pt" viewBox="0 0 805.000000 510.000000"
 preserveAspectRatio="xMidYMid meet">

<g transform="translate(0.000000,510.000000) scale(0.100000,-0.100000)"
fill="#000000" stroke="none">
<path d="M3760 4489 c-196 -22 -377 -76 -565 -168 -449 -221 -767 -626 -881
-1121 -87 -381 -38 -775 142 -1130 107 -210 270 -407 459 -555 662 -517 1609
-459 2204 136 539 539 643 1379 253 2034 -128 215 -346 436 -554 564 -319 194
-700 280 -1058 240z m463 -210 c584 -118 1031 -562 1159 -1152 32 -147 32
-437 0 -584 -132 -607 -606 -1060 -1212 -1159 -125 -21 -358 -20 -475 0 -624
112 -1099 591 -1206 1217 -29 168 -23 401 14 560 143 610 656 1067 1276 1139
113 13 327 3 444 -21z"/>
<path d="M3835 4249 c-486 -32 -931 -324 -1153 -757 -58 -112 -112 -264 -139
-392 -25 -120 -25 -420 0 -540 57 -268 181 -507 360 -696 217 -229 475 -370
792 -431 123 -23 367 -23 490 0 589 114 1020 534 1147 1120 30 137 32 418 5
546 -57 264 -169 489 -345 689 -221 251 -590 435 -920 458 -42 2 -90 6 -107 7
-16 2 -75 0 -130 -4z m795 -359 c18 -18 20 -33 20 -180 0 -180 -5 -192 -74
-205 l-35 -7 -3 -572 c-4 -539 -5 -575 -24 -637 -49 -160 -142 -254 -294 -295
-90 -25 -347 -26 -437 -1 -162 43 -246 126 -289 284 -10 39 -17 128 -21 274
l-6 217 27 27 27 26 149 -3 c105 -2 153 -7 162 -16 9 -9 14 -64 18 -188 5
-170 6 -176 29 -195 13 -10 31 -19 41 -19 15 0 77 43 178 123 9 7 12 4 12 -11
0 -13 -22 -36 -62 -66 -58 -43 -60 -46 -32 -46 16 0 40 9 54 20 30 23 44 25
36 5 -12 -32 16 -13 30 20 12 28 14 122 14 544 l0 509 -35 6 c-19 4 -43 18
-55 33 -18 23 -20 40 -20 179 l0 153 26 20 c25 20 39 21 285 21 246 0 260 -1
279 -20z m-710 -195 c0 -6 -105 -85 -113 -85 -21 0 -1 32 35 59 36 27 78 41
78 26z m80 -10 c0 -13 -178 -155 -194 -155 -3 0 -6 7 -6 15 0 13 175 154 193
155 4 0 7 -7 7 -15z m0 -73 c0 -11 -34 -43 -87 -82 -110 -83 -113 -85 -113
-66 0 11 179 161 198 165 1 1 2 -7 2 -17z m0 -80 c0 -26 -194 -169 -198 -147
-2 9 4 23 15 30 10 7 54 41 98 74 44 33 81 61 83 61 1 0 2 -8 2 -18z m33 -58
c8 -9 -194 -164 -205 -158 -17 11 -5 24 85 93 89 69 107 78 120 65z m77 -30
c0 -9 -203 -154 -216 -154 -27 0 -12 16 89 91 85 64 127 84 127 63z m0 -69 c0
-12 -179 -155 -195 -155 -3 0 -5 7 -5 15 0 13 174 153 193 154 4 1 7 -6 7 -14z
m0 -80 c0 -12 -180 -155 -195 -155 -3 0 -5 7 -5 15 0 13 174 153 193 154 4 1
7 -6 7 -14z m0 -75 c0 -13 -31 -43 -93 -90 -52 -38 -97 -70 -100 -70 -4 0 -7
7 -7 15 0 10 180 160 198 164 1 1 2 -8 2 -19z m0 -78 c0 -26 -194 -169 -198
-147 -2 9 4 23 15 30 10 7 54 41 98 74 44 33 81 60 83 60 1 1 2 -7 2 -17z m0
-80 c0 -26 -194 -169 -198 -147 -2 9 4 23 15 30 10 7 54 41 98 74 44 33 81 60
83 60 1 1 2 -7 2 -17z m0 -80 c0 -26 -194 -169 -198 -147 -2 9 4 23 15 30 10
7 54 41 98 74 44 33 81 61 83 61 1 0 2 -8 2 -18z m0 -79 c0 -10 -28 -38 -62
-63 -34 -25 -79 -58 -100 -73 -34 -26 -38 -27 -38 -10 0 12 35 44 97 91 53 40
98 72 100 72 2 0 3 -8 3 -17z m0 -80 c0 -10 -28 -38 -62 -63 -34 -25 -79 -58
-100 -73 -34 -26 -38 -27 -38 -10 0 12 35 44 97 91 53 40 98 72 100 72 2 0 3
-8 3 -17z m0 -78 c0 -13 -178 -155 -195 -155 -4 0 -5 7 -3 15 2 11 183 155
195 155 2 0 3 -7 3 -15z m0 -80 c0 -13 -178 -155 -195 -155 -4 0 -5 7 -3 16 3
14 174 152 191 153 4 1 7 -6 7 -14z m-800 -59 c0 -10 -61 -48 -67 -42 -10 10
28 46 49 46 10 0 18 -2 18 -4z m100 -3 c-1 -10 -157 -123 -170 -123 -24 0 -5
23 63 74 65 50 107 69 107 49z m700 -12 c0 -12 -34 -44 -95 -90 -52 -39 -97
-71 -100 -71 -3 0 -5 7 -5 15 0 10 180 160 198 164 1 1 2 -7 2 -18z m-680 -39
c0 -10 -36 -44 -90 -85 -88 -65 -116 -80 -108 -54 3 9 186 157 196 157 1 0 2
-8 2 -18z m0 -80 c0 -10 -36 -44 -90 -85 -88 -65 -116 -80 -108 -54 3 9 186
157 196 157 1 0 2 -8 2 -18z m0 -79 c0 -11 -35 -44 -87 -81 -98 -73 -117 -82
-112 -59 3 13 183 157 196 157 2 0 3 -8 3 -17z m10 -71 c0 -11 -27 -38 -67
-67 -38 -27 -83 -60 -102 -74 -30 -23 -33 -23 -30 -6 3 15 181 164 197 165 1
0 2 -8 2 -18z m10 -75 c0 -7 -39 -42 -87 -77 -110 -83 -113 -85 -113 -66 0 14
175 155 193 156 4 0 7 -6 7 -13z m20 -67 c0 -7 -152 -124 -187 -144 -8 -4 -13
-1 -13 8 0 17 180 156 193 149 4 -2 7 -8 7 -13z m23 -54 c4 -10 -24 -37 -85
-81 -102 -75 -122 -85 -117 -62 3 10 179 152 195 157 1 0 4 -6 7 -14z m34 -62
c3 -10 -180 -148 -194 -145 -22 3 0 28 82 91 86 66 105 75 112 54z m42 -46 c0
-7 -45 -45 -99 -85 -70 -51 -101 -68 -109 -60 -7 7 17 31 87 83 96 72 123 86
121 62z m59 -38 c-5 -15 -190 -150 -206 -150 -25 0 -8 18 83 89 80 62 133 89
123 61z m65 -26 c10 -10 -196 -162 -211 -156 -21 8 -11 18 87 92 91 67 110 77
124 64z m517 -12 c0 -4 -41 -38 -91 -76 -85 -63 -143 -95 -155 -84 -2 3 46 42
107 87 103 74 139 94 139 73z m-430 -7 c0 -2 -45 -38 -100 -80 -63 -48 -108
-75 -121 -73 -14 2 7 23 83 81 87 65 138 92 138 72z m100 -9 c0 -2 -50 -41
-110 -85 -77 -57 -115 -79 -125 -73 -19 10 179 161 213 162 12 0 22 -2 22 -4z
m100 -1 c0 -2 -48 -41 -107 -85 -94 -71 -144 -96 -143 -72 1 13 214 162 232
162 10 0 18 -2 18 -5z m105 -4 c-6 -4 -56 -43 -113 -85 -69 -52 -110 -76 -124
-74 -17 2 1 20 88 85 66 50 119 83 134 83 14 0 20 -4 15 -9z"/>
<path d="M2422 887 c-19 -20 -22 -35 -22 -104 0 -59 -4 -84 -15 -93 -8 -7 -15
-25 -15 -40 0 -15 7 -33 15 -40 11 -9 15 -34 15 -94 0 -77 2 -84 28 -109 15
-15 38 -27 50 -27 18 0 22 6 22 34 0 21 -6 36 -15 40 -12 4 -15 23 -15 84 0
59 -4 83 -15 92 -14 12 -14 15 0 30 11 12 15 39 15 99 0 63 3 83 15 87 9 4 15
19 15 35 0 25 -4 29 -28 29 -17 0 -37 -10 -50 -23z"/>
<path d="M5370 881 c0 -20 6 -30 20 -34 18 -5 20 -14 20 -89 0 -52 5 -89 12
-96 9 -9 9 -15 0 -24 -7 -7 -12 -44 -12 -96 0 -75 -2 -84 -20 -89 -15 -4 -20
-14 -20 -39 0 -31 3 -34 29 -34 20 0 37 9 55 31 23 27 26 39 26 109 0 57 4 81
15 90 8 7 15 25 15 40 0 15 -7 33 -15 40 -11 9 -15 33 -15 89 0 72 -2 79 -28
104 -16 16 -39 27 -55 27 -23 0 -27 -4 -27 -29z"/>
<path d="M2700 810 c0 -25 4 -30 25 -30 l26 0 -3 -127 -3 -128 -32 -3 c-28 -3
-32 0 -35 25 -2 23 -8 29 -35 31 -32 3 -33 2 -33 -34 0 -59 39 -94 105 -94 43
0 56 4 78 28 l27 28 0 167 0 167 -60 0 -60 0 0 -30z"/>
<path d="M2920 673 l0 -167 27 -28 c24 -25 34 -28 89 -28 57 0 64 2 88 31 26
30 26 33 26 195 l0 164 -35 0 -34 0 -3 -157 -3 -158 -40 0 -40 0 -3 158 -3
157 -34 0 -35 0 0 -167z"/>
<path d="M3315 828 c-2 -7 -18 -85 -35 -173 -17 -88 -34 -170 -37 -182 -5 -21
-1 -23 29 -23 33 0 36 2 44 43 9 40 10 42 50 45 l42 3 6 -45 c7 -45 8 -46 43
-46 33 0 35 2 30 28 -3 15 -20 102 -38 195 l-33 167 -49 0 c-29 0 -49 -5 -52
-12z m69 -180 c7 -36 5 -38 -19 -38 -14 0 -25 2 -25 5 0 2 5 28 11 57 13 57
19 52 33 -24z"/>
<path d="M3582 648 l3 -193 33 -3 32 -3 0 108 1 108 42 -105 43 -105 37 -3 37
-3 0 195 0 196 -35 0 -35 0 -1 -102 0 -103 -40 103 -40 102 -40 0 -39 0 2
-192z"/>
<path d="M3905 818 c7 -33 75 -362 75 -366 0 -2 21 -2 47 0 l47 3 38 180 c20
99 38 186 38 193 0 7 -13 12 -33 12 l-33 0 -23 -122 c-13 -68 -26 -127 -29
-133 -4 -5 -18 49 -32 120 l-26 130 -37 3 c-35 3 -37 2 -32 -20z"/>
<path d="M4250 645 l0 -195 30 0 30 0 0 195 0 195 -30 0 -30 0 0 -195z"/>
<path d="M4420 645 l0 -195 83 0 c78 0 85 2 110 28 27 28 27 29 27 173 0 139
-1 146 -23 167 -20 19 -35 22 -110 22 l-87 0 0 -195z m149 121 c8 -9 11 -52 9
-127 l-3 -114 -45 0 -45 0 -3 114 c-1 63 0 121 2 128 7 17 70 17 85 -1z"/>
<path d="M4750 645 l0 -196 93 3 92 3 3 33 3 32 -65 0 -66 0 0 45 0 45 45 0
c45 0 45 0 45 35 0 35 0 35 -46 35 l-45 0 3 48 3 47 63 3 c61 3 62 3 62 32 l0
30 -95 0 -95 0 0 -195z"/>
<path d="M5030 833 c1 -5 18 -91 38 -193 l38 -185 46 -3 c55 -4 46 -23 88 193
17 88 34 168 36 178 4 14 -1 17 -29 17 l-34 0 -28 -135 c-16 -74 -29 -134 -31
-133 -1 2 -12 53 -24 113 -33 168 -28 155 -66 155 -19 0 -34 -3 -34 -7z"/>
</g>
</svg>
